<svg height="512pt" viewBox="0 -2 512.00049 512" width="512pt" xmlns="http://www.w3.org/2000/svg"><path d="m412.441406 208.726562h-391.128906c0-54.363281 20.183594-105.539062 56.835938-144.09375.773437-.808593 1.546874-1.613281 2.328124-2.40625 46.40625-47.25 114.917969-65.328124 179.019532-48.691406 48.714844 12.644532 83.558594 28.796875 116.667968 23.726563 19.269532-2.949219 37.445313 9.871093 40.65625 29.097656 5.777344 34.613281 14.492188 86.90625-4.378906 142.367187zm0 0" fill="#c86d5c"/><path d="m120.476562 62.226562c30.242188-30.796874 69.882813-49.1875 111.566407-53.664062-55.632813-5.929688-111.738281 13.113281-151.566407 53.664062-.78125.792969-1.554687 1.597657-2.328124 2.40625-36.652344 38.554688-56.835938 89.730469-56.835938 144.09375h40c0-54.363281 20.183594-105.539062 56.835938-144.09375.769531-.808593 1.546874-1.613281 2.328124-2.40625zm0 0" fill="#ad4f3d"/><path d="m7.511719 231.089844c0 21.960937 17.800781 39.761718 39.761719 39.761718 21.960937 0 19.761718-17.800781 19.761718-39.761718 0-21.957032 2.058594-39.761719-19.902344-39.761719-21.957031 0-39.621093 17.804687-39.621093 39.761719zm0 0" fill="#e3b098"/><path d="m426.242188 231.089844c0 21.960937-17.800782 39.761718-39.761719 39.761718-21.957031 0-39.757813-17.800781-39.757813-39.761718 0-21.957032 17.941406-39.761719 39.898438-39.761719 21.960937 0 39.621094 17.804687 39.621094 39.761719zm0 0" fill="#e3b098"/><path d="m133.519531 365.246094s-53.628906 40.417968-53.628906 113.730468h273.976563c0-73.308593-53.632813-113.730468-53.632813-113.730468zm0 0" fill="#6ee3ff"/><path d="m163.519531 365.246094h-30s-53.628906 40.417968-53.628906 113.726562h29.996094c0-73.308594 53.632812-113.726562 53.632812-113.726562zm0 0" fill="#42c3e2"/><path d="m266.890625 374.136719c0 27.621093-22.394531 50.011719-50.011719 50.011719-27.621094 0-50.011718-22.390626-50.011718-50.011719 0-27.621094 22.390624-50.011719 50.011718-50.011719 27.617188 0 50.011719 22.390625 50.011719 50.011719zm0 0" fill="#e3b098"/><path d="m384.828125 184.726562c-12.277344-38.210937-52.910156-59.511718-91.742187-49.367187-15.75 4.113281-38.65625 7.988281-70.457032 8.855469-68.164062 1.859375-121.449218-28.53125-165.53125 31.652344-6.941406 9.472656-10.746094 20.9375-10.757812 32.683593v.175781c0 99.074219 76.355468 179.386719 170.539062 179.386719s170.535156-80.3125 170.535156-179.386719c0-5.890624-.277343-11.710937-.804687-17.453124-.507813-2.246094-1.101563-4.425782-1.78125-6.546876zm0 0" fill="#fbc4ac"/><path d="m76.339844 208.726562c0-.0625 0-.117187 0-.175781.011718-11.746093 3.8125-23.210937 10.753906-32.683593 18.539062-25.308594 38.707031-34.597657 60.921875-37.003907-34.472656-2.632812-64.367187.753907-90.921875 37.003907-6.9375 9.472656-10.742188 20.9375-10.753906 32.683593v.175781c0 99.074219 76.351562 179.386719 170.539062 179.386719 5.054688 0 10.054688-.242187 14.996094-.695312-87.15625-7.992188-155.535156-84.9375-155.535156-178.691407zm0 0" fill="#e3b098"/><path d="m448.484375 446.925781c-4.375 11.011719-10.941406 20.902344-19.179687 29.144531-15.578126 15.578126-37.101563 25.21875-60.878907 25.21875-36.351562 0-67.429687-22.515624-80.0625-54.363281l43.019531-130.828125c11.222657-5.367187 23.777344-8.363281 37.042969-8.363281 13.261719 0 25.816407 2.996094 37.039063 8.363281zm0 0" fill="#efedee"/><path d="m503.125 413.40625c-3.667969-8.003906-7.726562-22.628906-7.726562-48.15625 0-46.609375-30.03125-58.515625-69.5-35.511719l26.679687 103.691407c20.730469 8.058593 35.398437 4.261718 44.5625-1.011719 6.621094-3.816407 9.167969-12.066407 5.984375-19.011719zm0 0" fill="#ad4f3d"/><path d="m233.726562 413.40625c3.667969-8.003906 7.722657-22.628906 7.722657-48.15625 0-46.609375 30.035156-58.515625 69.5-35.511719l-26.675781 103.691407c-20.730469 8.058593-35.402344 4.261718-44.5625-1.011719-6.625-3.816407-9.167969-12.066407-5.984376-19.011719zm0 0" fill="#ad4f3d"/><path d="m454.523438 393.835938v21.351562c0 11.203125-2.144532 21.917969-6.039063 31.738281-18.109375-1.78125-37.210937-8.808593-48.683594-23.566406-18.871093-24.269531-12.894531-64.144531-3.125-90.875 2.0625-5.636719 4.6875-11.78125 8.789063-16.386719 29.003906 13.835938 49.058594 43.449219 49.058594 77.738282zm0 0" fill="#c86d5c"/><path d="m282.328125 393.835938v21.351562c0 11.203125 2.140625 21.917969 6.035156 31.738281 18.109375-1.78125 37.210938-8.808593 48.683594-23.566406 18.875-24.269531 12.894531-64.144531 3.125-90.875-2.0625-5.636719-4.683594-11.78125-8.789063-16.386719-29.003906 13.835938-49.054687 43.449219-49.054687 77.738282zm0 0" fill="#c86d5c"/><path d="m315.191406 247.234375h-22.992187c-4.140625 0-7.5 3.355469-7.5 7.5 0 4.140625 3.359375 7.496094 7.5 7.496094h22.992187c4.144532 0 7.5-3.355469 7.5-7.496094 0-4.144531-3.355468-7.5-7.5-7.5zm0 0" fill="#f98084"/><path d="m141.554688 247.234375h-22.992188c-4.140625 0-7.5 3.355469-7.5 7.5 0 4.140625 3.359375 7.496094 7.5 7.496094h22.992188c4.140624 0 7.5-3.355469 7.5-7.496094 0-4.144531-3.359376-7.5-7.5-7.5zm0 0" fill="#f98084"/><path d="m303.683594 237.398438c4.140625 0 7.5-3.359376 7.5-7.5v-16.882813c0-4.140625-3.359375-7.5-7.5-7.5s-7.5 3.359375-7.5 7.5v16.882813c0 4.140624 3.359375 7.5 7.5 7.5zm0 0"/><path d="m130.046875 237.398438c4.140625 0 7.5-3.359376 7.5-7.5v-16.882813c0-4.140625-3.359375-7.5-7.5-7.5s-7.5 3.359375-7.5 7.5v16.882813c0 4.140624 3.359375 7.5 7.5 7.5zm0 0"/><path d="m206.984375 241.949219c-2.726563-3.117188-7.464844-3.4375-10.582031-.710938-3.121094 2.726563-3.4375 7.464844-.710938 10.582031 5.238282 5.996094 12.957032 9.4375 21.175782 9.4375 8.214843 0 15.933593-3.441406 21.171874-9.4375 2.726563-3.117187 2.410157-7.855468-.710937-10.582031-3.117187-2.726562-7.855469-2.40625-10.582031.710938-2.390625 2.738281-5.992188 4.308593-9.878906 4.308593-3.890626 0-7.492188-1.570312-9.882813-4.308593zm0 0"/><path d="m374.058594 438.234375c-1.414063-1.617187-3.507813-2.5625-5.65625-2.558594-2.128906.003907-4.230469.960938-5.636719 2.558594-1.199219 1.371094-3.035156 2.160156-5.03125 2.160156-2 0-3.835937-.789062-5.035156-2.160156-2.726563-3.121094-7.464844-3.4375-10.582031-.710937-3.121094 2.722656-3.4375 7.460937-.710938 10.582031 4.050781 4.632812 10 7.289062 16.328125 7.289062 3.808594 0 7.476563-.96875 10.679687-2.746093 3.203126 1.777343 6.871094 2.746093 10.679688 2.746093 6.328125 0 12.277344-2.65625 16.328125-7.289062 2.726563-3.121094 2.40625-7.859375-.710937-10.582031-3.121094-2.726563-7.855469-2.410157-10.582032.710937-1.203125 1.371094-3.039062 2.160156-5.035156 2.160156-2 0-3.835938-.789062-5.035156-2.160156zm0 0"/><path d="m357.386719 427.746094c3.351562 1.445312 7.085937 2.25 11.027343 2.25 3.9375 0 7.671876-.804688 11.027344-2.25 3.515625-1.515625 2.445313-6.761719-1.386718-6.761719h-19.285157c-3.828125 0-4.902343 5.246094-1.382812 6.761719zm0 0"/><path d="m312.785156 396.277344c-4.140625 0-7.5 3.359375-7.5 7.5v9.886718c0 4.140626 3.359375 7.5 7.5 7.5s7.5-3.359374 7.5-7.5v-9.886718c0-4.140625-3.359375-7.5-7.5-7.5zm0 0"/><path d="m424.039062 396.277344c-4.140624 0-7.5 3.359375-7.5 7.5v9.886718c0 4.140626 3.359376 7.5 7.5 7.5 4.144532 0 7.5-3.359374 7.5-7.5v-9.886718c0-4.140625-3.355468-7.5-7.5-7.5zm0 0"/><path d="m51.566406 278.109375c13.910156 36.375 38.40625 67.132813 69.476563 88.042969-15.640625 14.898437-48.664063 53.394531-48.664063 112.796875 0 4.144531 3.355469 7.5 7.5 7.5h227.882813c2.382812 2.027343 4.863281 3.949219 7.460937 5.742187 15.671875 10.84375 34.0625 16.570313 53.1875 16.570313 25 0 48.503906-9.734375 66.1875-27.414063 9.097656-9.097656 16.109375-19.757812 20.847656-31.683594.867188-2.1875 1.628907-4.410156 2.324219-6.644531 6.023438 1.671875 11.894531 2.53125 17.535157 2.53125 9.285156 0 17.886718-2.242187 25.566406-6.660156 10.003906-5.761719 13.898437-18.070313 9.058594-28.632813-3.210938-7.011718-7.042969-20.515624-7.042969-45.035156 0-34.054687-15.613281-54.386718-41.765625-54.386718-10.472656 0-22.015625 3.308593-34.371094 9.828124-5.507812-4.417968-11.542969-8.25-18.066406-11.363281-11.519532-5.503906-23.8125-8.523437-36.601563-9.011719 3.855469-7.175781 7.230469-14.582031 10.125-22.175781 1.421875.128907 2.84375.214844 4.265625.214844 26.058594 0 47.257813-21.203125 47.257813-47.261719 0-11.519531-4.132813-22.085937-10.988281-30.296875 15.191406-53.382812 6.960937-102.738281 1.464843-135.671875-3.84375-23.011718-25.914062-38.839844-49.1875-35.273437-22.449219 3.433593-46.320312-3.785157-76.542969-12.921875-11.675781-3.53125-23.746093-7.183594-37.105468-10.652344-66.320313-17.210938-137.1875 1.71875-184.941406 49.402344-2.929688 2.925781-2.933594 7.675781-.007813 10.605468 2.925781 2.929688 7.675781 2.933594 10.605469.007813 44.011718-43.945313 109.371094-61.378906 170.574218-45.496094 13.066407 3.394531 24.996094 7 36.53125 10.488281 30.769532 9.308594 57.34375 17.34375 83.152344 13.394532 15.214844-2.328125 29.625 7.953125 32.125 22.917968 5.042969 30.199219 12.488282 74.789063.671875 122.484376-4.308593-2.484376-8.980469-4.246094-13.867187-5.257813-.484375-.097656-3.417969-.589844-3.71875-.625-.171875-.59375-.355469-1.179687-.542969-1.761719-2.859375-8.902344-7.269531-17.304687-12.957031-24.722656-20.296875-26.449219-55.675782-38-87.816406-29.609375-22.382813 5.847656-45.699219 7.988281-68.769532 8.617187-30.402344.824219-60.332031-6.050781-90.695312-6.050781-21.492188 0-45.984375 3.5625-69.085938 27.054688-.035156.035156-.066406.070312-.101562.101562-7.113282 7.265625-13.789063 15.496094-18.023438 24.804688-.199218.4375-.414062.867187-.605468 1.3125-4.53125.3125-8.988282 1.296875-13.246094 2.875-.242188.089843-.484375.171875-.726563.265625 3.738281-36.113282 16.800781-70.046875 38.171875-98.859375 2.46875-3.328125 1.769532-8.023438-1.558594-10.492188-3.324218-2.46875-8.023437-1.773437-10.488281 1.554688-25.316406 34.132812-39.785156 74.917969-41.949219 118.128906-8.695312 8.578125-14.101562 20.503906-14.101562 33.675781 0 26.058594 21.199219 47.261719 47.261719 47.261719 1.433593 0 2.871093-.085937 4.304687-.21875zm60.96875 121.226563c8.492188-12.304688 17.085938-20.777344 21.808594-25.007813 5.496094 3.023437 11.148438 5.714844 16.910156 8.105469 3.085938 1.285156 6.207032 2.484375 9.363282 3.589844 5.539062 26.304687 28.921874 45.601562 56.25 45.601562 3.652343 0 7.277343-.355469 10.84375-1.039062 1.898437 3.347656 4.671874 6.246093 8.246093 8.304687 7.742188 4.457031 16.652344 6.664063 25.570313 6.664063 5.5625 0 11.144531-.84375 16.519531-2.257813.335937-.089844.667969-.164063 1.003906-.257813.097657.320313.210938.632813.3125.953126 1.570313 4.894531 3.5625 9.648437 5.921875 14.210937 2.410156 4.65625 5.195313 9.082031 8.332032 13.246094h-206.046876c1.355469-25.832031 9.734376-50.058594 24.964844-72.113281zm136.269532-25.539063c.09375-2.863281.132812-5.722656.132812-8.574219 0-32.550781 14.558594-39.386718 26.769531-39.386718 5.59375 0 11.15625 1.339843 16.394531 3.214843 2.148438.765625 4.253907 1.652344 6.355469 2.601563-9.980469 11.234375-17.054687 24.691406-20.734375 39.140625 0 .011719-.003906.019531-.007812.03125-4.382813 17.964843-4.554688 39.300781-1.976563 57.558593-7.078125 2.046876-14.617187 2.867188-21.890625 1.410157-3.953125-.792969-9.132812-2.140625-12.019531-5.164063-4-4.183594-.296875-10.042968 1.191406-14.460937 3.945313-11.707031 5.382813-24.050781 5.785157-36.371094zm75.875-45.289063c.296874-.203124 4.347656-2.769531 4.371093-2.730468.003907.011718.011719.023437.019531.035156 3.457032 6.222656 5.703126 13.457031 7.6875 20.359375 10.039063 34.894531 4.070313 60.066406-5.640624 72.558594-6.851563 8.808593-17.136719 14.4375-27.671876 17.605469-3.292968.992187-6.648437 1.757812-10.039062 2.324218-.695312-2.238281-1.304688-4.527344-1.808594-6.867187-1.171875-5.449219-1.785156-11.050781-1.785156-16.628907 0-13.363281-.9375-26.976562 2.300781-40.066406 3.628907-14.644531 11.414063-27.992187 22.308594-38.355468 3.179687-3.023438 6.613281-5.789063 10.257813-8.234376zm-139.414063 64.136719c8.816406 1.664063 17.765625 2.625 26.734375 2.875 5.886719.164063 11.789062.023438 17.664062-.421875.605469-.046875 1.214844-.085937 1.824219-.140625-1.234375 6.386719-2.742187 10.949219-4.046875 14.058594-.921875 2.195313-1.859375 4.429687-2.261718 6.789063-2.734376.542968-5.515626.820312-8.3125.820312-17.25 0-32.378907-10.398438-38.976563-25.539062 2.445313.574218 4.90625 1.09375 7.375 1.558593zm251.199219 44.5625c-8.226563-2.105469-16.285156-5.613281-23.054688-10.867187-2.855468-2.214844-5.480468-4.753906-7.703125-7.609375-10.71875-13.78125-16.871093-43.007813-2-83.691407 1.136719-3.109374 2.414063-6.300781 4.050781-9.226562.007813-.015625.015626-.027344.023438-.042969 5.28125 3.070313 10.203125 6.765625 14.628906 10.980469 15.457032 14.722656 24.601563 35.691406 24.601563 57.058594 0 15.15625 1.027343 30.167968-3.570313 44.851562-2.34375-.386718-4.671875-.863281-6.976562-1.453125zm24.652344-111.371093c12.214843 0 26.769531 6.835937 26.769531 39.386718 0 21.859375 2.828125 39.113282 8.40625 51.28125 1.59375 3.480469.34375 7.515625-2.90625 9.386719-9.015625 5.191406-20.019531 6.058594-32.300781 2.496094-.339844-.097657.925781-11.839844.925781-13.222657 0-14.847656.875-29.828124-2.902344-44.339843-.003906-.011719-.007813-.019531-.011719-.03125-3.675781-14.449219-10.753906-27.90625-20.730468-39.144531 8.328124-3.820313 16.074218-5.8125 22.75-5.8125zm-67.210938-5.941407c-1.667969 3.207031-3.078125 6.585938-4.285156 9.992188-11.128906 30.449219-15.859375 72.195312 4.246094 98.050781 4.230468 5.441406 9.476562 10.113281 15.273437 13.824219 7.910156 5.0625 16.804687 8.464843 25.945313 10.546875.789062.179687 1.574218.351562 2.34375.507812-3.582032 6.5625-8.082032 12.566406-13.441407 17.925782-14.84375 14.847656-34.582031 23.023437-55.578125 23.023437-19.652344 0-37.925781-7.160156-51.9375-19.5-.339844-.425781-.722656-.8125-1.148437-1.152344-6.375-5.84375-11.769531-12.75-15.910157-20.300781.75-.152344 1.511719-.320312 2.285157-.492188 11.636719-2.648437 22.933593-7.476562 32.183593-15.109374 4.128907-3.40625 7.828126-7.34375 10.886719-11.742188 18.894531-27.277344 13.113281-66.363281 2.433594-95.582031-1.292969-3.53125-2.714844-7.042969-4.480469-10.363281.21875-.078126.4375-.160157.660156-.234376 8.046876-2.707031 16.539063-4.074218 25.027344-4.074218 8.878906 0 17.488282 1.4375 25.703125 4.289062-.070312.128906-.140625.257813-.207031.390625zm-6.738281-56.574219c.941406-3.230468 2.605469-9.941406 2.628906-10.027343 3.152344-13.46875 4.832031-27.289063 5.074219-41.121094.070312-4.105469.011718-8.226563-.171875-12.332031 13.808593 3.613281 24.03125 16.242187 24.03125 31.226562 0 17.554688-14.09375 31.878906-31.5625 32.253906zm-92.199219-120.730468c26.324219-6.875 55.332031 2.46875 72.023438 24.105468.078124.101563.160156.207032.238281.308594 20.273437 26.652344 13.640625 66.832032 4.21875 96.421875-4.214844 13.242188-9.96875 25.945313-17.203125 37.851563-6.710938 1.015625-13.257813 2.757812-19.597656 5.21875-7.183594 2.789062-14.015626 6.460937-20.304688 10.917968-.449219.320313-4.03125 3.367188-4.292969 3.230469-10.597656-5.519531-22.25-9.804687-34.34375-9.804687-26.15625 0-41.769531 20.332031-41.769531 54.382812 0 4.832032-.148438 9.660156-.503906 14.476563-5.5.585937-11.039063.890625-16.570313.890625-21.828125 0-43.402343-4.71875-63.359375-13.511719-.023437-.007813-.042968-.015625-.0625-.027344-53.546875-23.929687-92.542968-77.199219-98.746094-140.578125-1.59375-16.285156-1.652343-32.425781 8.4375-46.199218 18.261719-24.929688 43.667969-35.539063 74.40625-34.511719 28.53125.953125 56.632813 6.710937 85.28125 5.929687 27.648438-.757812 51.925782-3.816406 72.148438-9.101562zm-279.96875 88.476562c0-13.652344 8.488281-25.351562 20.445312-30.050781 1.167969-.460937 2.359376-.824219 3.566407-1.164063.148437-.039062.296875-.070312.449219-.109374-.066407.449218-.117188.902343-.171876 1.351562 0 .011719-.003906.023438-.003906.035156-1.007812 8.867188-.375 18.046875.492188 26.902344 1.171875 11.984375 3.433594 23.785156 6.78125 35.289062-17.464844-.375-31.558594-14.699218-31.558594-32.253906zm0 0"/></svg>