<svg height="512pt" viewBox="0 -66 512 512" width="512pt" xmlns="http://www.w3.org/2000/svg"><g fill-rule="evenodd"><path d="m58.316406 305.996094c0-12.179688-9.011718-22.253906-20.730468-23.914063-1.121094-.164062-2.265626-.246093-3.429688-.246093-13.339844 0-24.15625 10.816406-24.15625 24.160156 0 13.339844 10.816406 24.15625 24.15625 24.15625 1.75 0 3.457031-.1875 5.101562-.542969 10.890626-2.339844 19.058594-12.023437 19.058594-23.613281zm0 0" fill="#d675a7"/><path d="m95.71875 207.101562c7.753906 10.375 18.425781 18.085938 31.226562 21.515626 33.828126 9.0625 69.71875-15.191407 80.164063-54.175782 1.375-5.132812 2.242187-10.265625 2.628906-15.332031 2.566407-33.390625-15.59375-63.792969-44.96875-71.664063-33.828125-9.0625-69.71875 15.191407-80.164062 54.171876-6.492188 24.234374-1.625 48.453124 11.113281 65.484374zm0 0" fill="#d675a7"/><path d="m126.945312 228.617188c-12.800781-3.429688-23.472656-11.140626-31.226562-21.511719-31.296875 22.847656-50.734375 49.71875-58.132812 74.972656 11.71875 1.664063 20.730468 11.738281 20.730468 23.917969 0 11.589844-8.164062 21.273437-19.058594 23.613281 10.582032 23.921875 37.757813 40.402344 81.835938 40.402344h179.96875c33.957031 0 64.445312-15.605469 84.648438-40 15.765624-19.035157 25.265624-43.417969 25.265624-69.914063 0-38.902344-20.480468-73.253906-51.195312-92.800781-11.253906-7.164063-23.886719-12.339844-37.386719-15.023437-6.90625-1.371094-14.039062-2.089844-21.332031-2.089844-33.582031 0-64.023438 3.242187-91.320312 8.929687-.390626 5.0625-1.257813 10.199219-2.632813 15.332031-10.445313 38.980469-46.335937 63.234376-80.164063 54.171876zm0 0" fill="#eef2f2"/><path d="m339.152344 89.730469-16.757813 62.542969c13.5 2.683593 26.132813 7.859374 37.386719 15.023437l18.007812-67.214844c3.992188 3.011719 8.613282 5.320313 13.738282 6.695313 21.339844 5.71875 43.269531-6.945313 48.988281-28.285156 5.71875-21.339844-6.945313-43.273438-28.285156-48.988282-14.546875-3.898437-29.367188.75-39.144531 10.863282-3.40625-13.648438-13.917969-25.082032-28.46875-28.980469-21.335938-5.71875-43.269532 6.945312-48.988282 28.285156-5.71875 21.335937 6.945313 43.269531 28.285156 48.988281 5.121094 1.371094 10.28125 1.683594 15.238282 1.070313zm0 0" fill="#ffc059"/><path d="m482 330.011719h-96.289062c-20.203126 24.394531-50.691407 40-84.648438 40h180.9375c11 0 20-9 20-20s-9-20-20-20zm0 0" fill="#d675a7"/></g><path d="m103.53125 117.128906c2.257812 0 4.527344-.757812 6.394531-2.316406l.007813-.003906c4.242187-3.535156 4.8125-9.839844 1.277344-14.082032-3.535157-4.242187-9.847657-4.8125-14.085938-1.277343-4.246094 3.535156-4.816406 9.839843-1.28125 14.082031 1.976562 2.375 4.820312 3.597656 7.6875 3.597656zm0 0"/><path d="m201.070312 320.007812h-.007812c-5.523438 0-9.996094 4.480469-9.996094 10 0 5.523438 4.480469 10 10.003906 10 5.523438 0 10-4.476562 10-10 0-5.519531-4.476562-10-10-10zm0 0"/><path d="m311.0625 330.007812c0-5.519531-4.480469-10-10-10h-59.996094c-5.523437 0-10 4.480469-10 10 0 5.523438 4.476563 10 10 10h59.996094c5.523438 0 10-4.476562 10-10zm0 0"/><path d="m482 320.011719h-77.09375c10.214844-17.640625 16.070312-38.105469 16.070312-59.917969 0-39.910156-19.601562-75.320312-49.683593-97.132812l12.878906-48.058594c1.554687.585937 3.144531 1.097656 4.765625 1.53125 4.320312 1.15625 8.65625 1.710937 12.929688 1.710937 22.074218-.003906 42.328124-14.753906 48.308593-37.066406 3.457031-12.898437 1.683594-26.375-4.996093-37.941406-6.675782-11.5625-17.460938-19.835938-30.359376-23.292969-12.808593-3.433594-26.261718-1.589844-37.507812 4.75-6.570312-11.109375-17.296875-19.4375-30.105469-22.867188-12.898437-3.457031-26.375-1.6835932-37.941406 4.992188-11.566406 6.679688-19.835937 17.460938-23.292969 30.363281-3.457031 12.898438-1.683594 26.371094 4.992188 37.9375 6.679687 11.566407 17.460937 19.839844 30.359375 23.296875 1.625.433594 3.253906.785156 4.894531 1.058594l-11.152344 41.628906c-4.59375-.539062-9.265625-.824218-14-.824218-28.355468 0-55.644531 2.296874-81.316406 6.832031-2.179688-32.824219-22.238281-61.148438-52.386719-69.226563-9.703125-2.601562-19.691406-2.941406-29.691406-1.023437-5.425781 1.042969-8.976563 6.285156-7.933594 11.707031 1.039063 5.425781 6.273438 8.976562 11.707031 7.933594 7.003907-1.34375 13.984376-1.109375 20.738282.703125 28.449218 7.621093 44.273437 41.15625 35.269531 74.75-4.429687 16.527343-14.105469 30.523437-27.253906 39.40625-12.703125 8.585937-27.144531 11.316406-40.664063 7.695312-10.191406-2.730469-18.753906-8.726562-25.144531-16.839843-.179687-.308594-.371094-.617188-.589844-.910157-.261719-.355469-.542969-.679687-.839843-.992187-10.054688-14.007813-13.996094-33.640625-9.25-53.777344 1.269531-5.378906-2.0625-10.761719-7.4375-12.027344-5.371094-1.265625-10.761719 2.0625-12.027344 7.4375-4.894532 20.765625-2.578125 42.082032 6.519531 60.023438.496094.984375 1.019531 1.941406 1.554687 2.894531-24.925781 19.882813-43.015624 43.324219-51.917968 67.28125-17.074219 1.878906-30.402344 16.382813-30.402344 33.945313 0 18.59375 14.9375 33.757812 33.441406 34.140624 6.644532 11.394532 16.730469 20.828126 29.546875 27.511719 15.722657 8.207031 35.269531 12.367188 58.101563 12.367188h360.910156c16.542969 0 30-13.457031 30-30s-13.457031-30-30-30zm-135.300781-236.84375c-2.183594-2.511719-5.46875-3.773438-8.773438-3.363281-3.816406.472656-7.664062.203124-11.425781-.804688-7.742188-2.074219-14.210938-7.039062-18.214844-13.980469-4.007812-6.9375-5.074218-15.023437-3-22.761719 2.074219-7.742187 7.039063-14.210937 13.980469-18.21875 6.941406-4.003906 15.023437-5.070312 22.765625-2.996093 10.527344 2.820312 18.710938 11.152343 21.351562 21.746093.882813 3.523438 3.605469 6.292969 7.117188 7.234376 3.507812.941406 7.25-.097657 9.777344-2.710938 7.585937-7.851562 18.835937-10.976562 29.363281-8.152344 7.742187 2.074219 14.210937 7.039063 18.21875 13.976563 4.007813 6.941406 5.070313 15.027343 2.996094 22.765625-2.074219 7.742187-7.039063 14.210937-13.976563 18.21875-6.941406 4.003906-15.023437 5.066406-22.765625 2.996094-3.761719-1.007813-7.226562-2.695313-10.296875-5.015626-2.65625-2.003906-6.132812-2.554687-9.277344-1.476562-3.148437 1.082031-5.546874 3.65625-6.410156 6.871094l-14.671875 54.753906c-5.992187-2.921875-12.261719-5.359375-18.757812-7.261719l14.113281-52.671875c.863281-3.210937.070312-6.640625-2.113281-9.148437zm-326.699219 222.824219c0-7.804688 6.351562-14.15625 14.15625-14.15625s14.15625 6.351562 14.15625 14.15625c0 7.808593-6.351562 14.160156-14.15625 14.160156s-14.15625-6.351563-14.15625-14.160156zm33.398438 28.203124c9-6.15625 14.917968-16.5 14.917968-28.203124 0-12.980469-7.28125-24.292969-17.96875-30.070313 7.964844-19.371094 23.203125-38.5 43.976563-55.15625 8.359375 8.414063 18.582031 14.441406 30.035156 17.507813 5.644531 1.515624 11.378906 2.261718 17.109375 2.261718 13.769531 0 27.515625-4.3125 39.925781-12.703125 17.140625-11.578125 29.699219-29.621093 35.375-50.800781.851563-3.175781 1.507813-6.347656 2.011719-9.511719 25.804688-4.867187 53.441406-7.339843 82.28125-7.339843 6.605469 0 13.058594.652343 19.308594 1.878906.1875.039062.375.082031.558594.109375 11.742187 2.378906 22.742187 6.824219 32.605468 12.9375.566406.453125 1.183594.847656 1.851563 1.171875 27.421875 17.835937 45.59375 48.742187 45.59375 83.816406 0 23.738281-8.324219 45.5625-22.199219 62.71875-.546875.527344-1.03125 1.113281-1.445312 1.75-18.34375 21.667969-45.726563 35.449219-76.273438 35.449219h-179.972656c-31.921875 0-55.492188-9.089844-67.691406-25.816407zm428.601562 25.816407h-114.707031c8.523437-5.667969 16.285156-12.398438 23.089843-20h91.617188c5.515625 0 10 4.484375 10 10 0 5.511719-4.484375 10-10 10zm0 0"/><path d="m336.691406 40.316406c-5.355468-1.339844-10.789062 1.917969-12.128906 7.273438v.007812c-1.339844 5.359375 1.917969 10.785156 7.273438 12.125.816406.203125 1.628906.300782 2.433593.300782 4.480469 0 8.5625-3.035157 9.695313-7.578126 1.34375-5.359374-1.917969-10.789062-7.273438-12.128906zm0 0"/><path d="m399.132812 77.753906c.914063.261719 1.839844.386719 2.75.386719 4.351563 0 8.355469-2.863281 9.613282-7.257813 1.515625-5.308593-1.558594-10.84375-6.871094-12.363281-5.308594-1.519531-10.84375 1.558594-12.359375 6.871094l-.003906.003906c-1.515625 5.3125 1.558593 10.84375 6.871093 12.359375zm0 0"/><path d="m104.367188 256.984375c-5.519532 0-10 4.480469-10 10v.007813c0 5.523437 4.480468 9.996093 10 9.996093 5.523437 0 10-4.480469 10-10.003906s-4.476563-10-10-10zm0 0"/></svg>