<svg height="512pt" viewBox="0 -51 512 511" width="512pt" xmlns="http://www.w3.org/2000/svg"><path d="m.00390625.5h511.99609375v409.597656h-511.99609375zm0 0" fill="#ff8040"/><path d="m511.996094 262.589844v32.914062h-123.816406c-9.082032 0-16.457032 7.367188-16.457032 16.457032v81.679687c0 9.089844 7.375 16.457031 16.457032 16.457031h-65.820313c9.082031 0 16.457031-7.367187 16.457031-16.457031v-81.679687c0-9.089844-7.375-16.457032-16.457031-16.457032h-132.710937c-9.082032 0-16.457032 7.367188-16.457032 16.457032v81.679687c0 9.089844 7.375 16.457031 16.457032 16.457031h-65.816407c9.078125 0 16.457031-7.367187 16.457031-16.457031v-81.679687c0-9.089844-7.378906-16.457032-16.457031-16.457032h-123.832031v-32.914062h24.566406c9.078125 0 16.457032-7.367188 16.457032-16.457032v-81.667968c0-9.089844-7.378907-16.457032-16.457032-16.457032h-24.566406v-32.914062h123.832031c9.078125 0 16.457031-7.367188 16.457031-16.457031v-81.679688c0-9.089843-7.378906-16.457031-16.457031-16.457031h65.816407c-9.082032 0-16.457032 7.367188-16.457032 16.457031v81.679688c0 9.089843 7.375 16.457031 16.457032 16.457031h132.710937c9.082031 0 16.457031-7.367188 16.457031-16.457031v-81.679688c0-9.089843-7.375-16.457031-16.457031-16.457031h65.820313c-9.082032 0-16.457032 7.367188-16.457032 16.457031v81.679688c0 9.089843 7.375 16.457031 16.457032 16.457031h123.816406v32.914062h-24.554688c-9.078125 0-16.457031 7.367188-16.457031 16.457032v81.667968c0 9.089844 7.378906 16.457032 16.457031 16.457032zm-73.914063-16.457032v-81.667968c0-9.089844-7.375-16.457032-16.457031-16.457032h-132.710938c-9.082031 0-16.457031 7.367188-16.457031 16.457032v81.667968c0 9.089844 7.375 16.457032 16.457031 16.457032h132.710938c9.082031 0 16.457031-7.367188 16.457031-16.457032zm-198.53125 0v-81.667968c0-9.089844-7.375-16.457032-16.457031-16.457032h-132.710938c-9.078124 0-16.457031 7.367188-16.457031 16.457032v81.667968c0 9.089844 7.378907 16.457032 16.457031 16.457032h132.710938c9.082031 0 16.457031-7.367188 16.457031-16.457032zm0 0" fill="#e4e4ef"/></svg>