<svg id="Layer_1" data-name="Layer 1" xmlns="http://www.w3.org/2000/svg" viewBox="0 0 556 838.11"><defs><style>.cls-1{fill:#ff8040;}.cls-2{fill:#e4e4ef;}</style></defs><title>pared</title><path class="cls-1" d="M.81,2.18h408.8v409.6H.81Z" transform="translate(32.2 175.68)"/><path class="cls-2" d="M523.8,258.38v30.05H397.33c-9.28,0-16.81,6.73-16.81,15V378c0,8.3,7.53,15,16.81,15H330.09c9.28,0,16.81-6.73,16.81-15V303.46c0-8.3-7.53-15-16.81-15H194.53c-9.28,0-16.81,6.73-16.81,15V378c0,8.3,7.53,15,16.81,15H127.3c9.27,0,16.81-6.73,16.81-15V303.46c0-8.3-7.54-15-16.81-15H.8V258.38H25.9c9.27,0,16.81-6.73,16.81-15V168.79c0-8.3-7.54-15-16.81-15H.8V123.71H127.3c9.27,0,16.81-6.73,16.81-15V34.1c0-8.3-7.54-15-16.81-15h67.23c-9.28,0-16.81,6.73-16.81,15v74.58c0,8.3,7.53,15,16.81,15H330.09c9.28,0,16.81-6.73,16.81-15V34.1c0-8.3-7.53-15-16.81-15h67.23c-9.28,0-16.81,6.73-16.81,15v74.58c0,8.3,7.53,15,16.81,15H523.8v30.05H498.72c-9.27,0-16.81,6.73-16.81,15v74.57c0,8.3,7.54,15,16.81,15Zm-75.5-15V168.79c0-8.3-7.53-15-16.81-15H295.93c-9.28,0-16.81,6.73-16.81,15v74.57c0,8.3,7.53,15,16.81,15H431.49C440.77,258.38,448.3,251.66,448.3,243.36Zm-202.8,0V168.79c0-8.3-7.53-15-16.81-15H93.13c-9.27,0-16.81,6.73-16.81,15v74.57c0,8.3,7.54,15,16.81,15H228.69C238,258.38,245.5,251.66,245.5,243.36Z" transform="translate(32.2 175.68)"/><path class="cls-2" d="M297.09,393.07H161.53M.8,393.07h-33v30.05H-7.1c9.27,0,16.81,6.73,16.81,15v74.57c0,8.3-7.54,15-16.81,15H-32.2V557.8H94.3c9.27,0,16.81,6.73,16.81,15v74.58c0,8.3-7.54,15-16.81,15h67.23c-9.28,0-16.81-6.73-16.81-15V572.83c0-8.3,7.53-15,16.81-15H297.09c9.28,0,16.81,6.73,16.81,15v74.58c0,8.3-7.53,15-16.81,15h67.23c-9.28,0-16.81-6.73-16.81-15V572.83c0-8.3,7.53-15,16.81-15H490.8V527.75H465.72c-9.27,0-16.81-6.73-16.81-15V438.15c0-8.3,7.54-15,16.81-15H490.8V393.07H364.33m-270,0H.8M212.5,512.72c0,8.3-7.53,15-16.81,15H60.13c-9.27,0-16.81-6.73-16.81-15V438.15c0-8.3,7.54-15,16.81-15H195.69c9.28,0,16.81,6.73,16.81,15Zm202.8,0c0,8.3-7.53,15-16.81,15H262.93c-9.28,0-16.81-6.73-16.81-15V438.15c0-8.3,7.53-15,16.81-15H398.49c9.28,0,16.81,6.73,16.81,15Z" transform="translate(32.2 175.68)"/><path class="cls-2" d="M517.36-.89l-25.09.12C483-.72,475.43-5.61,475.4-11.7l-.27-54.66c0-6.08,7.48-11.05,16.76-11.1L517-77.58l-.11-22L390.38-99c-9.27,0-16.83-4.85-16.86-10.93l-.27-54.67c0-6.08,7.48-11.05,16.76-11.1l-67.23.33c9.28,0,16.83,4.85,16.87,10.93l.27,54.67c0,6.08-7.48,11.05-16.76,11.1L187.59-98c-9.28,0-16.83-4.85-16.87-10.93l-.16-31.48a18.79,18.79,0,0,1-5,.7l-.54,0a22.17,22.17,0,0,1,.48,3.63c.48,10.8-9.54,20-20,20a19.33,19.33,0,0,1-8.43-1.92l0,9.26c0,6.08-7.48,11.05-16.76,11.1l-61.54.3A21.64,21.64,0,0,1,64-84.16c.48,10.8-9.54,20-20,20A19.34,19.34,0,0,1,35.65-66a7.21,7.21,0,0,1,.28,1.86L36.2-9.52c0,6.08-7.48,11.05-16.76,11.1L-5.64,1.7l.11,22,126.48-.63,270-1.34,126.49-.63ZM222.24.57,86.68,1.24C77.4,1.29,69.84-3.6,69.81-9.69l-.27-54.66c0-6.08,7.48-11.05,16.76-11.1l135.56-.67c9.28,0,16.83,4.85,16.86,10.93L239-10.53C239-4.44,231.51.53,222.24.57ZM425-.43,289.47.24c-9.28,0-16.83-4.85-16.87-10.93l-.27-54.66c0-6.08,7.48-11.05,16.76-11.1l135.56-.67c9.27,0,16.83,4.85,16.87,10.93l.27,54.66C441.82-5.45,434.31-.48,425-.43Z" transform="translate(32.2 175.68)"/><path class="cls-2" d="M188.18,22.77l135.56-.67" transform="translate(32.2 175.68)"/></svg>